<?xml version="1.0" encoding="UTF-8"?>
<svg width="80px" height="80px" viewBox="0 0 80 80" version="1.1" xmlns="http://www.w3.org/2000/svg" xmlns:xlink="http://www.w3.org/1999/xlink">
    <!-- Generator: Sketch 63.1 (92452) - https://sketch.com -->
    <title>无数据</title>
    <desc>Created with Sketch.</desc>
    <defs>
        <linearGradient x1="50%" y1="0%" x2="50%" y2="100%" id="linearGradient-1">
            <stop stop-color="#EDEDEE" offset="0%"></stop>
            <stop stop-color="#FDFDFD" offset="100%"></stop>
        </linearGradient>
        <circle id="path-2" cx="40" cy="40" r="40"></circle>
        <linearGradient x1="84.5170455%" y1="64.9502841%" x2="12.162642%" y2="33.0255682%" id="linearGradient-4">
            <stop stop-color="#F1F1F1" offset="0%"></stop>
            <stop stop-color="#FFFFFF" offset="100%"></stop>
        </linearGradient>
        <linearGradient x1="100%" y1="50%" x2="4.66579861%" y2="53.6082231%" id="linearGradient-5">
            <stop stop-color="#B2B2B2" offset="0%"></stop>
            <stop stop-color="#C0C0C0" offset="100%"></stop>
        </linearGradient>
        <linearGradient x1="21.2669095%" y1="45.5118815%" x2="78.7330905%" y2="50%" id="linearGradient-6">
            <stop stop-color="#E1E0E0" offset="0%"></stop>
            <stop stop-color="#F3F3F3" offset="100%"></stop>
        </linearGradient>
        <linearGradient x1="44.2721893%" y1="45.5118815%" x2="55.7278107%" y2="50%" id="linearGradient-7">
            <stop stop-color="#E1E0E0" offset="0%"></stop>
            <stop stop-color="#F3F3F3" offset="100%"></stop>
        </linearGradient>
        <linearGradient x1="95.2246094%" y1="46.8477688%" x2="1.8359375%" y2="52.1841784%" id="linearGradient-8">
            <stop stop-color="#E5E5E5" offset="0%"></stop>
            <stop stop-color="#CCCCCC" offset="100%"></stop>
        </linearGradient>
        <linearGradient x1="95.2246094%" y1="37.1098916%" x2="1.8359375%" y2="58.9315456%" id="linearGradient-9">
            <stop stop-color="#E5E5E5" offset="0%"></stop>
            <stop stop-color="#CCCCCC" offset="100%"></stop>
        </linearGradient>
    </defs>
    <g id="表格" stroke="none" stroke-width="1" fill="none" fill-rule="evenodd">
        <g id="功能注册-为空2" transform="translate(-643.000000, -300.000000)">
            <g id="分组列表" transform="translate(535.000000, 122.000000)">
                <g id="编组-2" transform="translate(106.000000, 178.000000)">
                    <g id="无数据" transform="translate(2.000000, 0.000000)">
                        <g id="椭圆形">
                            <g>
                                <mask id="mask-3" fill="white">
                                    <use xlink:href="#path-2"></use>
                                </mask>
                                <use id="蒙版" fill="url(#linearGradient-1)" xlink:href="#path-2"></use>
                                <path d="M69.54599,38.4007742 C70.8396335,38.3501045 71.9427775,40.8002274 71.5007826,41.6988011 C71.1697172,42.3716761 70.4864299,42.6853578 69.7652648,42.7732558 C69.7998134,43.4821154 69.8394367,44.4 69.8394367,44.4 L69.8394367,44.4 L69.1315787,44.4 L69.258633,42.7996065 C68.3199143,42.7864225 67.4411046,42.4439115 67.313829,42.0656031 C66.7152755,40.2857797 68.6279204,38.4365296 69.54599,38.4007742 Z" id="路径-2" fill="#E8E8E8" fill-rule="nonzero" mask="url(#mask-3)"></path>
                                <path d="M74.2929027,40.0005631 C75.1161304,39.9637124 75.8181311,41.7456199 75.5368617,42.3991281 C75.3262337,42.8883754 74.8915711,43.1165155 74.4327684,43.1805041 C74.4487009,43.5956571 74.463662,44 74.463662,44 L74.463662,44 L74.0389472,44 L74.0924923,43.1993632 C73.5017602,43.1852418 72.9526367,42.9383309 72.8724367,42.6658932 C72.491539,41.3714762 73.7086766,40.026567 74.2929027,40.0005631 Z" id="路径-2" fill="#E8E8E8" fill-rule="nonzero" mask="url(#mask-3)"></path>
                                <path d="M39.9207698,35.6375691 C39.8598236,35.6618785 39.7684042,35.6983425 39.6465116,35.7348066 C39.5246191,35.7773481 39.3844427,35.8138122 39.232077,35.8563536 C39.0797113,35.898895 38.8907779,35.9292818 38.6713713,35.9535912 C38.4519647,35.9779006 38.2325581,35.9961326 38.0070569,35.9961326 C37.8668805,35.9961326 37.5012029,35.9657459 37.2939856,35.9110497 C36.8064154,35.7773481 36.5565357,35.7104972 36.5565357,35.7104972 L35.8495589,35.4734807 C35.6118685,35.3944751 35.3680834,35.3276243 35.1121091,35.2729282 C34.8622294,35.2243094 34.6184443,35.2 34.3990377,35.2 C34.1735365,35.2 33.9480353,35.2121547 33.7286287,35.2425414 C33.5092221,35.2729282 33.3202887,35.3033149 33.1740176,35.339779 C33.0338412,35.3701657 32.8936648,35.4127072 32.7534884,35.461326 C32.6194066,35.5099448 32.5279872,35.5403315 32.4914194,35.5585635 C32.448757,35.5767956 32.4182839,35.5889503 32.4,35.601105 L32.4,43.598895 C32.4,43.7082873 32.4365678,43.8055249 32.5157979,43.8845304 C32.5950281,43.9635359 32.6864475,44 32.7961508,44 C32.905854,44 33.0033681,43.9635359 33.0765036,43.8845304 C33.1557338,43.8055249 33.1923015,43.7143646 33.1923015,43.598895 L33.1923015,40.9370166 C33.5945469,40.8458564 33.9967923,40.8033149 34.3929431,40.8033149 C34.7342422,40.8093923 34.9902165,40.858011 35.1060144,40.8883978 L35.8434643,41.0889503 L36.5504411,41.3198895 C36.7942261,41.398895 37.0380112,41.4657459 37.2878909,41.520442 C37.5438653,41.5751381 37.7815557,41.6055249 38.0009623,41.6055249 C38.2264635,41.6055249 38.4519647,41.5933702 38.6713713,41.5629834 C38.8968725,41.5325967 39.0797113,41.5022099 39.2259824,41.4657459 C39.3661588,41.4353591 39.5063352,41.3928177 39.6465116,41.3441989 C39.7805934,41.2955801 39.8720128,41.2651934 39.9085806,41.2469613 C39.951243,41.2287293 39.9817161,41.2165746 40,41.2044199 L40,35.601105 L39.9207698,35.6375691 Z" id="路径" fill="#E8E8E8" fill-rule="nonzero" mask="url(#mask-3)"></path>
                                <circle fill="#FBFBFB" mask="url(#mask-3)" cx="11" cy="66.6" r="27.4"></circle>
                                <circle fill="#FBFBFB" mask="url(#mask-3)" cx="73" cy="66.6" r="22.6"></circle>
                                <ellipse fill="#FFFFFF" opacity="0.805385045" mask="url(#mask-3)" cx="40" cy="92.6" rx="54.4" ry="49"></ellipse>
                                <circle fill="url(#linearGradient-4)" mask="url(#mask-3)" cx="54.8" cy="14.8" r="4.4"></circle>
                            </g>
                        </g>
                        <g id="编组-3" transform="translate(6.984615, 32.123077)">
                            <g id="树" transform="translate(62.615385, 9.876923)"></g>
                            <g id="编组" transform="translate(17.815385, 20.676923)">
                                <polygon id="路径-3" fill="#BDBDBD" points="4.8 2.4 14.1735849 0 32.4 1.2 23.6 3.6"></polygon>
                                <polygon id="路径-4" fill="url(#linearGradient-5)" points="14 0 14 3.2 4.8 2.4"></polygon>
                                <polygon id="矩形" fill="url(#linearGradient-6)" points="4.8 2.4 23.6 3.2 23.6 27.2 4.8 25.625"></polygon>
                                <polygon id="矩形" fill="url(#linearGradient-7)" points="23.6 3.2 32.4 1.2 32.4 25.12 23.6 27.2"></polygon>
                                <polygon id="路径-5" fill="url(#linearGradient-8)" points="4.72 2.4 0 7.73333333 18.88 8.8 23.6 3.2"></polygon>
                                <polygon id="路径-6" fill="url(#linearGradient-9)" points="23.6 3.2 27.2 8 36 5.6 32.4 1.2"></polygon>
                            </g>
                            <g id="树叶" transform="translate(0.307692, 35.076923)">
                                <path d="M0.307692308,11 L18.3076923,11 C17.4834499,9.26666667 16.004662,8.4 13.8713287,8.4 C10.6713287,8.4 9.77038344,9.91103652 6.67132867,9.6 C4.60529216,9.39264232 2.48408004,9.85930899 0.307692308,11 Z" id="路径-8" fill="#D8D8D8" transform="translate(9.307692, 9.700000) scale(-1, 1) translate(-9.307692, -9.700000) "></path>
                                <path d="M4.70129231,3.6576 C5.29169231,3.7536 5.89169231,3.8448 6.44849231,4.08 C7.02929231,4.3248 7.44689231,4.752 7.86449231,5.2128 C8.30609231,5.6976 8.58449231,6.216 8.80049231,6.8304 C9.03089231,7.4688 9.25169231,8.1168 9.30449231,8.8032 C9.33809231,8.9232 9.15089231,9.0192 9.06449231,8.8944 C8.45969231,7.9968 7.76849231,7.2048 7.02449231,6.4224 C6.21809231,5.5776 5.41649231,4.7232 4.57649231,3.9072 C4.54289231,3.8736 4.53329231,3.8352 4.54289231,3.8016 C4.53809231,3.7248 4.60529231,3.6384 4.70129231,3.6576 Z M8.37329231,0.3408 C9.53009231,1.1328 9.93809231,2.7504 9.96689231,4.0848 C9.98609231,4.9728 9.96209231,5.8608 9.95249231,6.7488 C9.94289231,7.4304 10.0484923,8.2848 9.62129231,8.8752 C9.53969231,8.9856 9.37169231,8.9136 9.37649231,8.808 C9.37169231,8.7936 9.37169231,8.7792 9.37169231,8.7648 C9.39089231,8.3952 9.28049231,8.0544 9.17489231,7.704 C9.08369231,7.4064 9.02129231,7.1088 8.97809231,6.8016 C8.88209231,6.0864 8.87729231,5.3664 8.73809231,4.656 C8.60849231,3.9792 8.48849231,3.3264 8.45489231,2.64 C8.41649231,1.9296 8.39729231,1.2144 8.20529231,0.5232 C8.13809231,0.4176 8.25329231,0.2592 8.37329231,0.3408 Z M13.4468923,4.128 C13.5188923,4.1328 13.5572923,4.1808 13.5668923,4.2384 C13.5764923,4.2768 13.5764923,4.3248 13.5380923,4.3632 C12.3476923,5.7984 11.2244923,7.2864 10.1684923,8.8224 C10.0964923,8.928 9.94289231,8.8704 9.92849231,8.7744 C9.92369231,8.76 9.91889231,8.7408 9.91889231,8.7168 C9.95249231,8.1072 10.0580923,7.56 10.2884923,6.9936 C10.4948923,6.4896 10.6628923,5.9376 10.9412923,5.4672 C11.1860923,5.0496 11.6036923,4.6176 12.0212923,4.3728 C12.4484923,4.1184 12.9620923,4.0992 13.4468923,4.128 Z" id="形状" fill="#DBDBDB" fill-rule="nonzero"></path>
                            </g>
                            <g id="飞机" transform="translate(30.584615, 0.492308)">
                                <path d="M21.9892804,0.0538461538 C22.0958857,0.130307692 22.1378817,0.233692308 22.1184989,0.360769231 L20.8876928,7.74523077 C20.8715405,7.83784615 20.8198531,7.91 20.7337075,7.96169231 C20.6895578,7.98646154 20.6389472,8.00046154 20.5851062,8.00046154 C20.5495711,8.00046154 20.5108056,7.99184615 20.4698864,7.97569231 L18.2925549,7.08615385 L17.1285117,8.50553846 C17.0703634,8.57984615 16.9917555,8.61538462 16.892688,8.61538462 C16.8517688,8.61538462 16.8162337,8.60892308 16.7860827,8.596 C16.7257808,8.57338462 16.676247,8.53676923 16.6396351,8.48292308 C16.6030232,8.43015385 16.5836404,8.372 16.5836404,8.30738462 L16.5836404,6.63061538 L20.7369379,1.53892308 L15.5983495,5.98661538 L13.6999146,5.208 C13.5814643,5.16384615 13.5168551,5.07553846 13.5082405,4.94307692 C13.5017796,4.81492308 13.5523901,4.72015385 13.6622258,4.65876923 L21.6608501,0.0430769231 C21.709307,0.014 21.7599176,0 21.8148355,0 C21.8794447,0 21.937593,0.0183076923 21.9892804,0.0538461538 Z" id="路径" fill="#B2B2B2" fill-rule="nonzero"></path>
                                <path d="M0.584615385,22.1538462 C2.65641026,17.0051282 4.91282051,13.5179487 7.35384615,11.6923077 C9.79487179,9.86666667 12.4615385,8.43076923 15.3538462,7.38461538" id="路径-7" stroke="#B2B2B2" stroke-dasharray="2,2"></path>
                            </g>
                        </g>
                    </g>
                </g>
            </g>
        </g>
    </g>
</svg>